<?xml version="1.0" encoding="utf-8"?>
<!-- Generator: Adobe Illustrator 17.1.0, SVG Export Plug-In . SVG Version: 6.00 Build 0)  -->
<!DOCTYPE svg PUBLIC "-//W3C//DTD SVG 1.1 Basic//EN" "http://www.w3.org/Graphics/SVG/1.1/DTD/svg11-basic.dtd">
<svg version="1.1" baseProfile="basic" id="Layer_1"
	 xmlns="http://www.w3.org/2000/svg" xmlns:xlink="http://www.w3.org/1999/xlink" x="0px" y="0px" viewBox="0 0 276.9 56.422"
	 xml:space="preserve">
<g>
	<polygon fill="#0092A3" points="0,5.329 0,44.331 19.501,24.83 	"/>
	<polygon fill="#00738F" points="0,44.331 39.002,44.331 19.501,24.83 	"/>
	<polygon fill="#27ACBC" points="39.002,44.331 39.002,5.329 19.501,24.83 	"/>
	<polygon fill="#0092A7" points="39.002,5.329 39.002,44.331 58.504,24.83 	"/>
	<polygon fill="#2AACB8" points="78.005,5.329 39.002,5.329 58.504,24.83 	"/>
	<g>
		<path fill="#A0A0A0" d="M272.601,39.737h1.11c0.145,0,0.284,0.014,0.415,0.043c0.131,0.028,0.245,0.075,0.344,0.142
			c0.098,0.066,0.177,0.155,0.235,0.267s0.087,0.252,0.087,0.419c0,0.202-0.052,0.375-0.158,0.516
			c-0.105,0.142-0.259,0.231-0.461,0.269l0.729,1.211h-0.757l-0.599-1.146h-0.312v1.146h-0.632V39.737z M273.233,40.923h0.372
			c0.057,0,0.117-0.002,0.18-0.006c0.063-0.004,0.121-0.016,0.172-0.036c0.051-0.02,0.094-0.052,0.128-0.095
			c0.033-0.043,0.05-0.104,0.05-0.183c0-0.073-0.015-0.131-0.044-0.174c-0.03-0.043-0.068-0.077-0.114-0.1s-0.098-0.038-0.157-0.046
			c-0.06-0.008-0.118-0.012-0.174-0.012h-0.413V40.923z"/>
	</g>
	<circle fill="none" stroke="#A0A0A0" stroke-width="0.5599" stroke-miterlimit="10" cx="273.751" cy="41.17" r="2.869"/>
	<text transform="matrix(1 0 0 1 72.9584 43.6455)" fill="#A0A0A0" font-family="'Avenir-Light'" font-size="51.1079">durapart</text>
</g>
</svg>
